<mxfile host="app.diagrams.net" modified="2023-12-05T08:50:07.257Z" agent="Mozilla/5.0 (Windows NT 10.0; Win64; x64) AppleWebKit/537.36 (KHTML, like Gecko) Chrome/119.0.0.0 Safari/537.36" etag="zeZVwhMVvoMpeWFyb8jP" version="22.1.5" type="device">
  <diagram name="Page-1" id="-YdUmJq99ECq-pgO5PTW">
    <mxGraphModel dx="989" dy="545" grid="1" gridSize="10" guides="1" tooltips="1" connect="1" arrows="1" fold="1" page="1" pageScale="1" pageWidth="850" pageHeight="1100" math="0" shadow="0">
      <root>
        <mxCell id="0" />
        <mxCell id="1" parent="0" />
        <mxCell id="4FBqjL0ywIXUpAmHDhvP-84" style="edgeStyle=orthogonalEdgeStyle;rounded=0;orthogonalLoop=1;jettySize=auto;html=1;exitX=0.5;exitY=1;exitDx=0;exitDy=0;entryX=0.5;entryY=0;entryDx=0;entryDy=0;" edge="1" parent="1" source="4FBqjL0ywIXUpAmHDhvP-1" target="4FBqjL0ywIXUpAmHDhvP-75">
          <mxGeometry relative="1" as="geometry" />
        </mxCell>
        <mxCell id="4FBqjL0ywIXUpAmHDhvP-1" value="Print out the numbers from 1 to 5" style="rounded=1;whiteSpace=wrap;html=1;" vertex="1" parent="1">
          <mxGeometry x="320" y="40" width="160" height="80" as="geometry" />
        </mxCell>
        <mxCell id="4FBqjL0ywIXUpAmHDhvP-14" value="End&lt;br&gt;" style="rounded=1;whiteSpace=wrap;html=1;" vertex="1" parent="1">
          <mxGeometry x="339.97" y="440" width="120" height="60" as="geometry" />
        </mxCell>
        <mxCell id="4FBqjL0ywIXUpAmHDhvP-86" style="edgeStyle=orthogonalEdgeStyle;rounded=0;orthogonalLoop=1;jettySize=auto;html=1;exitX=0.5;exitY=1;exitDx=0;exitDy=0;entryX=0.5;entryY=0;entryDx=0;entryDy=0;" edge="1" parent="1" source="4FBqjL0ywIXUpAmHDhvP-74" target="4FBqjL0ywIXUpAmHDhvP-76">
          <mxGeometry relative="1" as="geometry" />
        </mxCell>
        <mxCell id="4FBqjL0ywIXUpAmHDhvP-74" value="print count&lt;br&gt;count++" style="rounded=0;whiteSpace=wrap;html=1;" vertex="1" parent="1">
          <mxGeometry x="339.97" y="240" width="120" height="60" as="geometry" />
        </mxCell>
        <mxCell id="4FBqjL0ywIXUpAmHDhvP-85" style="edgeStyle=orthogonalEdgeStyle;rounded=0;orthogonalLoop=1;jettySize=auto;html=1;exitX=0.5;exitY=1;exitDx=0;exitDy=0;" edge="1" parent="1" source="4FBqjL0ywIXUpAmHDhvP-75" target="4FBqjL0ywIXUpAmHDhvP-74">
          <mxGeometry relative="1" as="geometry" />
        </mxCell>
        <mxCell id="4FBqjL0ywIXUpAmHDhvP-75" value="int count = 1;" style="rounded=0;whiteSpace=wrap;html=1;" vertex="1" parent="1">
          <mxGeometry x="339.97" y="150" width="120" height="60" as="geometry" />
        </mxCell>
        <mxCell id="4FBqjL0ywIXUpAmHDhvP-77" style="edgeStyle=orthogonalEdgeStyle;rounded=0;orthogonalLoop=1;jettySize=auto;html=1;exitX=0;exitY=0.5;exitDx=0;exitDy=0;entryX=0;entryY=0.5;entryDx=0;entryDy=0;" edge="1" parent="1" source="4FBqjL0ywIXUpAmHDhvP-76" target="4FBqjL0ywIXUpAmHDhvP-74">
          <mxGeometry relative="1" as="geometry" />
        </mxCell>
        <mxCell id="4FBqjL0ywIXUpAmHDhvP-78" value="Yes" style="edgeLabel;html=1;align=center;verticalAlign=middle;resizable=0;points=[];" vertex="1" connectable="0" parent="4FBqjL0ywIXUpAmHDhvP-77">
          <mxGeometry x="0.1765" y="-1" relative="1" as="geometry">
            <mxPoint as="offset" />
          </mxGeometry>
        </mxCell>
        <mxCell id="4FBqjL0ywIXUpAmHDhvP-82" style="edgeStyle=orthogonalEdgeStyle;rounded=0;orthogonalLoop=1;jettySize=auto;html=1;exitX=0.5;exitY=1;exitDx=0;exitDy=0;entryX=0.5;entryY=0;entryDx=0;entryDy=0;" edge="1" parent="1" source="4FBqjL0ywIXUpAmHDhvP-76" target="4FBqjL0ywIXUpAmHDhvP-14">
          <mxGeometry relative="1" as="geometry" />
        </mxCell>
        <mxCell id="4FBqjL0ywIXUpAmHDhvP-87" value="No" style="edgeLabel;html=1;align=center;verticalAlign=middle;resizable=0;points=[];" vertex="1" connectable="0" parent="4FBqjL0ywIXUpAmHDhvP-82">
          <mxGeometry x="-0.0254" y="1" relative="1" as="geometry">
            <mxPoint as="offset" />
          </mxGeometry>
        </mxCell>
        <mxCell id="4FBqjL0ywIXUpAmHDhvP-76" value="if count&amp;lt;6" style="rhombus;whiteSpace=wrap;html=1;" vertex="1" parent="1">
          <mxGeometry x="359.97" y="330" width="80" height="80" as="geometry" />
        </mxCell>
      </root>
    </mxGraphModel>
  </diagram>
</mxfile>
